<svg width="164" height="165" viewBox="0 0 164 165" fill="none" xmlns="http://www.w3.org/2000/svg">
<g clip-path="url(#clip0_6:31)">
<path d="M140.037 72.8794C140.212 72.7177 140.468 72.4458 141.128 72.3777H146.409C146.825 72.4098 146.891 72.4993 147.169 72.7886C147.28 73.0268 147.335 73.3083 147.357 73.6134L147.394 79.9942H139.449V74.1192C139.527 73.4775 139.828 73.1227 140.039 72.8794L140.037 72.8794Z" fill="black" stroke="black" stroke-width="0.353242" stroke-linecap="round" stroke-linejoin="round"/>
<path d="M97.9329 72.5125C98.1812 72.2588 98.5259 72.076 99.1866 72.0566H122.524C122.97 72.0778 123.332 72.2414 123.659 72.4629C123.857 72.6674 124.031 72.9137 124.102 73.3469V79.6877H97.5549L97.5548 73.7061C97.5596 73.272 97.6432 72.8544 97.933 72.5124L97.9329 72.5125Z" fill="black" stroke="black" stroke-width="0.354538" stroke-linecap="round" stroke-linejoin="round"/>
<path d="M115.699 79.808H124.017V97.7868C124.012 98.1816 124.068 98.4526 123.757 98.8762C123.477 99.1308 123.142 99.3303 122.769 99.329H116.86C116.316 99.309 116.201 99.2396 115.872 98.8501C115.699 98.4877 115.702 98.1392 115.699 97.7968V79.808Z" fill="black" stroke="black" stroke-width="0.377953" stroke-linecap="round" stroke-linejoin="round"/>
<path d="M124.057 82.4862H133.045V88.2297C133.034 88.6517 133.025 88.9168 132.811 89.3596C132.592 89.6304 132.344 90.0451 131.423 90.0693H124.057V82.4862Z" fill="black" stroke="black" stroke-width="0.377953" stroke-linecap="round" stroke-linejoin="round"/>
<path d="M40.0085 82.5076C39.452 83.3524 39.313 83.5349 39.0818 84.2157L39.0697 89.1228C39.5583 90.3961 39.691 90.374 40.2204 90.8982C40.8095 91.2586 41.3174 91.4511 42.0324 91.534H72.1614C73.463 91.2929 73.6162 91.072 74.2255 90.7145C74.7844 90.0878 75.1476 89.8633 75.4805 88.6451V81.4684H42.031C40.5871 81.976 40.5046 82.0476 40.0075 82.5076H40.0085Z" fill="black" stroke="black" stroke-width="0.377953" stroke-linecap="round" stroke-linejoin="round"/>
<path d="M48.4518 73.0438C47.7123 73.9604 47.7641 74.5207 47.4245 75.2572V81.4317H57.9978V75.3787C57.6066 73.6761 57.3129 73.7109 56.8173 73.0577C56.2444 72.478 55.33 72.0942 54.6121 72.0627H50.4576C49.0545 72.4228 48.9436 72.5794 48.4518 73.0438V73.0438Z" fill="black" stroke="black" stroke-width="0.377953" stroke-linecap="round" stroke-linejoin="round"/>
<path d="M67.7141 72.3995C67.2188 72.8265 66.8493 73.2208 66.6183 73.9174L66.6364 81.49H87.699C88.5196 81.3589 88.9627 81.2178 89.8921 80.5728C90.4116 80.0824 90.6612 79.8153 90.9271 78.6935V74.3871C90.7715 73.5733 90.2715 73.0431 89.8019 72.6431C89.1983 72.1716 88.5002 71.9814 87.6545 71.9143H69.673C68.8433 71.993 68.1934 72.1228 67.7139 72.3995L67.7141 72.3995Z" fill="black" stroke="black" stroke-width="0.377953" stroke-linecap="round" stroke-linejoin="round"/>
<path d="M135.295 0C159.14 0.0399403 162.33 8.50873 162.349 26.3484L157.296 26.3581C157.015 16.2616 156.454 4.0745 135.21 5.16837C135.206 3.4453 135.259 1.72261 135.295 0H135.295Z" fill="#FE7E57"/>
<path d="M1.20335 27.1718C1.24574 3.34111 9.717 0.152853 27.567 0.133911L27.5791 5.18424C17.4768 5.46503 5.28263 6.02541 6.37708 27.2568C4.65302 27.2607 2.92939 27.2084 1.20576 27.1721L1.20335 27.1718Z" fill="#FE7E57"/>
<path d="M27.4506 165C3.6062 164.958 0.416093 156.491 0.397141 138.652L5.45038 138.639C5.73134 148.736 6.29202 160.923 27.5357 159.829C27.5395 161.552 27.4872 163.275 27.4509 164.998L27.4506 165Z" fill="#FE7E57"/>
<path d="M135.314 164.284C159.158 164.242 162.348 155.775 162.367 137.936L157.314 137.924C157.033 148.02 156.472 160.207 135.229 159.113C135.225 160.836 135.277 162.559 135.314 164.282L135.314 164.284Z" fill="#FE7E57"/>
<path d="M20.6026 27.027C25.0439 23.8079 27.4304 22.5722 32.7816 21.6553H43.9417C47.3984 22.2765 49.1828 23.1455 53.1804 26.3516C54.7729 28.1675 55.9674 29.8205 56.5502 34.0484V53.7994C56.3238 56.1695 55.5841 57.4247 53.0214 61.3465C51.3198 63.0746 50.6703 63.9333 45.8284 65.3628H25.5238C21.7179 65.0679 18.9981 62.6416 18.0998 61.8018C15.0514 58.5343 14.9157 57.469 14.5747 54.7774V36.8537C16.2697 30.8863 18.0001 29.585 20.6026 27.027V27.027Z" fill="black" stroke="black" stroke-width="0.377953" stroke-linecap="round" stroke-linejoin="round"/>
<path d="M24.3924 33.7163C25.2832 32.9102 25.3767 32.8898 26.361 32.651H43.9041C44.6321 32.7191 45.2188 33.1361 45.708 33.5328C46.0949 33.9007 46.3801 34.1526 46.6093 34.96V52.6315C46.5971 53.4772 46.3586 54.0902 45.9255 54.7295C45.3514 55.2297 45.1867 55.7226 43.7601 56.2348H26.2216C25.2546 56.0464 24.7832 55.7299 24.2678 55.1708C23.9021 54.4122 23.7628 53.7256 23.675 53.0004V35.6413C23.79 34.6159 23.9729 34.1143 24.3922 33.7163H24.3924Z" fill="white" stroke="black" stroke-width="0.377953" stroke-linejoin="round"/>
<path d="M35.7989 48.9564C38.2981 48.9564 40.3241 46.9316 40.3241 44.4338C40.3241 41.936 38.2981 39.9111 35.7989 39.9111C33.2997 39.9111 31.2737 41.936 31.2737 44.4338C31.2737 46.9316 33.2997 48.9564 35.7989 48.9564Z" fill="black" stroke="black" stroke-width="0.377953" stroke-linecap="round" stroke-linejoin="round"/>
<path d="M141.508 26.5661C137.066 23.3469 134.68 22.1112 129.329 21.1943H118.169C114.712 21.8155 112.927 22.6845 108.93 25.8907C107.337 27.7066 106.143 29.3596 105.56 33.5875V53.3385C105.786 55.7085 106.526 56.9638 109.089 60.8855C110.79 62.6137 111.44 63.4724 116.282 64.9019H136.586C140.392 64.6069 143.112 62.1807 144.01 61.3409C147.059 58.0733 147.195 57.0081 147.535 54.3165V36.3928C145.84 30.4254 144.11 29.1241 141.508 26.5661V26.5661Z" fill="black" stroke="black" stroke-width="0.377953" stroke-linecap="round" stroke-linejoin="round"/>
<path d="M137.718 33.2553C136.827 32.4492 136.733 32.4288 135.749 32.19H118.206C117.478 32.2581 116.891 32.6751 116.402 33.0718C116.015 33.4397 115.73 33.6916 115.501 34.499V52.1705C115.513 53.0162 115.752 53.6292 116.185 54.2685C116.759 54.7687 116.924 55.2616 118.35 55.7738H135.889C136.856 55.5854 137.327 55.2689 137.842 54.7098C138.208 53.9512 138.347 53.2646 138.435 52.5394V35.1803C138.32 34.1549 138.137 33.6533 137.718 33.2553H137.718Z" fill="white" stroke="black" stroke-width="0.377953" stroke-linejoin="round"/>
<path d="M126.311 48.4955C123.812 48.4955 121.786 46.4706 121.786 43.9728C121.786 41.4751 123.812 39.4502 126.311 39.4502C128.811 39.4502 130.837 41.4751 130.837 43.9728C130.837 46.4706 128.811 48.4955 126.311 48.4955Z" fill="black" stroke="black" stroke-width="0.377953" stroke-linecap="round" stroke-linejoin="round"/>
<path d="M20.8261 147.475C25.2674 150.694 27.6539 151.93 33.0051 152.847H44.1652C47.6219 152.226 49.4064 151.357 53.4039 148.15C54.9965 146.335 56.191 144.681 56.7738 140.454V120.703C56.5473 118.333 55.8076 117.077 53.245 113.156C51.5434 111.427 50.8939 110.569 46.0519 109.139H25.7474C21.9415 109.434 19.2216 111.86 18.3233 112.7C15.2749 115.968 15.1392 117.033 14.7982 119.725V137.648C16.4932 143.616 18.2236 144.917 20.8261 147.475V147.475Z" fill="black" stroke="black" stroke-width="0.377953" stroke-linecap="round" stroke-linejoin="round"/>
<path d="M24.6159 140.786C25.5067 141.592 25.6002 141.612 26.5845 141.851H44.1276C44.8556 141.783 45.4423 141.366 45.9315 140.969C46.3184 140.601 46.6036 140.349 46.8327 139.542V121.87C46.8206 121.025 46.5821 120.412 46.1489 119.773C45.5749 119.272 45.4102 118.779 43.9836 118.267H26.4451C25.478 118.456 25.0067 118.772 24.4913 119.331C24.1255 120.09 23.9863 120.776 23.8985 121.502V138.861C24.0135 139.886 24.1964 140.388 24.6157 140.786H24.6159Z" fill="white" stroke="black" stroke-width="0.377953" stroke-linejoin="round"/>
<path d="M36.0224 125.546C38.5216 125.546 40.5476 127.57 40.5476 130.068C40.5476 132.566 38.5216 134.591 36.0224 134.591C33.5231 134.591 31.4971 132.566 31.4971 130.068C31.4971 127.57 33.5231 125.546 36.0224 125.546Z" fill="black" stroke="black" stroke-width="0.377953" stroke-linecap="round" stroke-linejoin="round"/>
<path d="M83.9598 15.4164C84.805 14.8601 84.9876 14.7214 85.6689 14.4903L90.5788 14.4794C91.8528 14.968 91.8307 15.1004 92.3552 15.6295C92.7158 16.2185 92.9084 16.7258 92.9913 17.4404V47.552C92.7501 48.8529 92.529 49.006 92.1714 49.6149C91.5443 50.1736 91.3197 50.5365 90.1008 50.8692H82.92V17.439C83.4279 15.996 83.4995 15.9135 83.9598 15.4167V15.4164Z" fill="black" stroke="black" stroke-width="0.377953" stroke-linecap="round" stroke-linejoin="round"/>
<path d="M74.4905 23.8549C75.4076 23.1159 75.9682 23.1676 76.7052 22.8281H82.8832V33.3953H76.8268C75.1231 33.0042 75.158 32.7109 74.5044 32.2155C73.9244 31.643 73.5403 30.7291 73.5089 30.0116V25.8595C73.8691 24.4573 74.0258 24.3464 74.4905 23.8549V23.8549Z" fill="black" stroke="black" stroke-width="0.377953" stroke-linecap="round" stroke-linejoin="round"/>
<path d="M73.8458 43.106C74.2731 42.6109 74.6676 42.2417 75.3646 42.0109L82.9416 42.0302V63.0806C82.8104 63.9007 82.6692 64.3436 82.0238 65.2724C81.5332 65.7914 81.2658 66.0411 80.1434 66.3068H75.8345C75.0203 66.1511 74.4898 65.6517 74.0896 65.1823C73.6178 64.5787 73.4275 63.8814 73.3604 63.0361V45.0638C73.4391 44.2346 73.569 43.585 73.8458 43.1059V43.106Z" fill="black" stroke="black" stroke-width="0.377953" stroke-linecap="round" stroke-linejoin="round"/>
<path d="M14.7398 73.2103C15.1806 72.8488 15.2993 72.8211 15.7754 72.7802H21.5708V90.0739C21.5526 90.4506 21.5102 90.6532 21.2862 91.1286C21.1451 91.3558 20.995 91.732 20.5002 91.8343H15.5114C14.9519 91.778 14.6771 91.5299 14.5432 91.2804C14.4251 91.0469 14.3034 90.8997 14.2053 89.9827L14.2055 74.3939C14.2812 73.6279 14.6149 73.3659 14.7396 73.2103H14.7398Z" fill="black" stroke="black" stroke-width="0.348081" stroke-linecap="round" stroke-linejoin="round"/>
<path d="M21.7585 72.8069H29.5829C30.7344 72.8463 31.1456 73.2785 31.4457 73.5296C31.6461 73.707 32.1308 74.1617 32.226 74.9281V78.8825C32.1957 79.0779 32.1473 79.2453 32.0135 79.4208C31.8954 79.6045 31.6805 79.7371 31.398 79.7719H21.7585V72.8069Z" fill="black" stroke="black" stroke-width="0.377953" stroke-linecap="round" stroke-linejoin="round"/>
<path d="M164 79.9716H0V86.6924H164V79.9716Z" fill="#FE7E57"/>
<path d="M99.386 109.24C98.9452 109.602 98.8265 109.63 98.3504 109.671H92.555V92.3769C92.5731 92.0002 92.6155 91.7976 92.8396 91.3222C92.9807 91.095 93.1308 90.7188 93.6256 90.6165H98.6144C99.1739 90.6728 99.4487 90.9209 99.5826 91.1704C99.7007 91.4039 99.8224 91.5512 99.9205 92.4681L99.9202 108.057C99.8446 108.823 99.5109 109.085 99.3862 109.24H99.386Z" fill="black" stroke="black" stroke-width="0.348081" stroke-linecap="round" stroke-linejoin="round"/>
<path d="M92.3672 109.644H84.5428C83.3913 109.605 82.9801 109.172 82.6801 108.921C82.4796 108.744 81.9949 108.289 81.8998 107.523V103.568C81.93 103.373 81.9785 103.205 82.1123 103.03C82.2304 102.846 82.4453 102.714 82.7278 102.679H92.3672V109.644Z" fill="black" stroke="black" stroke-width="0.377953" stroke-linecap="round" stroke-linejoin="round"/>
<path d="M146.826 109.235C146.385 109.596 146.266 109.624 145.79 109.665H139.995V92.3713C140.013 91.9946 140.055 91.792 140.279 91.3166C140.42 91.0894 140.571 90.7132 141.065 90.6109H146.054C146.614 90.6671 146.888 90.9153 147.022 91.1648C147.14 91.3983 147.262 91.5455 147.36 92.4625L147.36 108.051C147.284 108.817 146.951 109.079 146.826 109.235H146.826Z" fill="black" stroke="black" stroke-width="0.348081" stroke-linecap="round" stroke-linejoin="round"/>
<path d="M139.807 109.638H131.983C130.831 109.599 130.42 109.167 130.12 108.916C129.919 108.738 129.435 108.283 129.34 107.517V103.563C129.37 103.367 129.418 103.2 129.552 103.024C129.67 102.841 129.885 102.708 130.168 102.673H139.807V109.638Z" fill="black" stroke="black" stroke-width="0.377953" stroke-linecap="round" stroke-linejoin="round"/>
<path d="M62.2235 125.137C62.451 124.899 62.7081 124.538 63.3464 124.516H70.4933C71.0236 124.577 71.2451 124.802 71.5195 125.163C71.6886 125.466 71.7037 125.774 71.696 126.126V143.906H64.8655C63.5156 143.645 63.1985 143.252 62.7179 142.809C62.14 142.19 61.9081 141.724 61.7982 141.009L61.7903 126.306C61.8255 125.723 61.986 125.421 62.2231 125.137H62.2235Z" fill="black" stroke="black" stroke-width="0.377953" stroke-linecap="round" stroke-linejoin="round"/>
<path d="M71.7576 136.017H79.7655C80.4439 136.01 80.7229 136.291 80.8801 136.404C81.1048 136.651 81.1833 136.896 81.2404 137.288V144.31H71.7576V136.017Z" fill="black" stroke="black" stroke-width="0.362687" stroke-linecap="round" stroke-linejoin="round"/>
<path d="M71.765 144.346H89.7463C90.4722 144.483 90.7586 144.678 91.1629 145.085C91.5986 145.485 91.7202 145.874 91.7368 146.554V151.527C91.7786 152.021 91.5878 152.35 91.233 152.647C90.896 152.939 90.6334 153.069 89.8999 153.055H73.4171C72.8563 153.052 72.3896 152.882 72.0513 152.486C71.8824 152.225 71.7214 151.939 71.765 151.226V144.346Z" fill="black" stroke="black" stroke-width="0.377953" stroke-linecap="round" stroke-linejoin="round"/>
<path d="M104.353 118.962C104.718 118.643 105.002 118.558 105.48 118.536H113.705C114.102 118.541 114.409 118.727 114.714 118.99C114.859 119.176 114.964 119.308 115.035 119.77V125.975C115.017 126.365 114.889 126.641 114.612 126.982C114.135 127.328 113.859 127.523 113.35 127.554L105.62 127.578C104.897 127.456 104.736 127.331 104.437 127.015C103.922 126.319 104.02 125.922 103.992 125.173V120.088C103.95 119.488 104.188 119.242 104.353 118.962Z" fill="black" stroke="black" stroke-width="0.388698" stroke-linecap="round" stroke-linejoin="round"/>
<path d="M117.417 143.654C117.985 143.288 118.307 143.309 118.829 143.264H145.764L147.112 143.261L146.578 144.115C145.511 145.795 144.577 147.001 142.866 149.014C141.497 150.449 139.489 152.061 135.905 152.735H118.884C117.958 152.762 117.588 152.556 117.122 152.086C116.788 151.637 116.557 151.364 116.567 150.543L116.545 145.071C116.674 144.347 116.989 143.935 117.417 143.654H117.417Z" fill="black" stroke="black" stroke-width="0.394382" stroke-linecap="round" stroke-linejoin="round"/>
<path d="M130.745 133.997C131.091 133.592 131.37 133.39 131.888 133.324H137.709C138.482 133.319 138.862 133.691 139.239 134.145C139.459 134.512 139.702 134.98 139.765 135.576V143.31H130.336V135.444C130.378 134.546 130.531 134.325 130.745 133.997Z" fill="black" stroke="black" stroke-width="0.377953" stroke-linecap="round" stroke-linejoin="round"/>
</g>
<defs>
<clipPath id="clip0_6:31">
<rect width="164" height="165" fill="white"/>
</clipPath>
</defs>
</svg>
