<svg width="155" height="165" viewBox="0 0 155 165" fill="none" xmlns="http://www.w3.org/2000/svg">
<path d="M154.597 82.5C154.597 127.511 116.635 164 69.8081 164C36.901 164 13.0184 148.202 3.28142 121.598C-1.14204 109.512 1.36045 95.1478 6.56957 82.837C15.1811 62.4852 14.735 37.9302 22.3432 21.6111C28.5342 8.33171 48.1748 1 69.8081 1C116.635 1 154.597 37.4888 154.597 82.5Z" fill="#F7EAE7" stroke="#F7EAE7" stroke-width="0.285698"/>
<path d="M100.003 62.091H62.7267V78.9023H100.003V62.091Z" fill="#FD7E57" stroke="#FD7E57" stroke-width="0.0285698"/>
<path d="M114.65 78.9048H49.3166V82.1915H114.65V78.9048Z" fill="#FD7E57" stroke="#FD7E57" stroke-width="0.0299249"/>
<path d="M99.9479 82.1797H62.672V98.991H99.9479V82.1797Z" fill="#FD7E57" stroke="#FD7E57" stroke-width="0.0285698"/>
<path d="M97.1468 82.1861H66.1286V96.0391H97.1468V82.1861Z" fill="white" stroke="white" stroke-width="0.0286278"/>
<path d="M114.886 46.9428H98.0456V55.1054H114.886V46.9428Z" fill="#FE7D56" stroke="#FE7D56" stroke-width="0.0285698"/>
<path d="M114.874 55.1269H107.183V64.2284H114.874V55.1269Z" fill="#FE7D56" stroke="#FE7D56" stroke-width="0.0285698"/>
<path d="M49.2926 110.449H66.133V102.286H49.2926V110.449Z" fill="#FE7D56" stroke="#FE7D56" stroke-width="0.0285698"/>
<path d="M49.3041 102.265H56.9955V93.1635H49.3041V102.265Z" fill="#FE7D56" stroke="#FE7D56" stroke-width="0.0285698"/>
<path d="M114.685 110.46V93.5129H106.573V110.46H114.685Z" fill="#FE7D56" stroke="#FE7D56" stroke-width="0.0285698"/>
<path d="M106.552 110.448V102.708H97.5078V110.448H106.552Z" fill="#FE7D56" stroke="#FE7D56" stroke-width="0.0285698"/>
<path d="M49.3495 47.0527V63.9995H57.4608V47.0527H49.3495Z" fill="#FE7D56" stroke="#FE7D56" stroke-width="0.0285698"/>
<path d="M57.4821 47.0643V54.8044H66.5264V47.0643H57.4821Z" fill="#FE7D56" stroke="#FE7D56" stroke-width="0.0285698"/>
</svg>
