<svg width="1011" height="1011" viewBox="0 0 1011 1011" fill="none" xmlns="http://www.w3.org/2000/svg">
<rect width="1011" height="1011" fill="white"/>
<path d="M624.174 13.1948L624.175 13.1953L887.914 276.934L887.914 276.935C893.159 282.178 896.109 289.296 896.109 296.707V978.032C896.109 993.47 883.579 1006 868.141 1006H142.859C127.42 1006 114.891 993.47 114.891 978.032V32.9681C114.891 17.5295 127.42 5 142.859 5H604.402C611.811 5 618.931 7.94982 624.174 13.1948Z" fill="white" stroke="#FD7E57" stroke-width="10"/>
<path d="M887.886 276.938L887.887 276.939C893.151 282.183 896.109 289.308 896.109 296.74V978.032C896.109 993.478 883.587 1006 868.141 1006H510.5V5H603.443C610.842 5 617.944 7.93446 623.19 13.16C623.19 13.1602 623.19 13.1604 623.191 13.1606L887.886 276.938Z" fill="#E5E5E5" fill-opacity="0.62" stroke="#FD7E57" stroke-width="10"/>
<path d="M624.174 13.1948L624.175 13.1953L887.92 276.938C893.163 282.181 896.109 289.292 896.109 296.707V324.675H604.404C588.958 324.675 576.436 312.151 576.436 296.707L576.434 5H604.392C611.812 5 618.93 7.94856 624.174 13.1948Z" fill="#FD7E57" stroke="#FD7E57" stroke-width="10"/>
<path d="M736.273 417.586H274.727C256.527 417.586 241.759 432.355 241.759 450.555V846.164C241.759 864.364 256.527 879.132 274.727 879.132H736.273C754.473 879.132 769.241 864.364 769.241 846.164V450.555C769.239 432.355 754.473 417.586 736.273 417.586ZM307.696 615.391H439.566V681.325H307.696V615.391V615.391ZM505.5 615.391H703.305V681.325H505.5V615.391ZM703.305 549.457H505.5V483.523H703.305V549.457ZM439.566 483.523V549.457H307.696V483.523H439.566ZM307.696 747.261H439.566V813.195H307.696V747.261V747.261ZM505.5 813.195V747.261H703.305V813.195H505.5Z" fill="#FD7E57"/>
<path d="M736.273 417.586H505.5V483.521H703.305V549.455H505.5V615.389H703.305V681.323H505.5V747.257H703.305V813.192H505.5V879.126H736.273C754.479 879.126 769.241 864.366 769.241 846.158V450.555C769.239 432.347 754.479 417.586 736.273 417.586Z" fill="#FD7E57"/>
</svg>
